<svg xmlns="http://www.w3.org/2000/svg" viewBox="0 0 160 128" role="img" aria-labelledby="title">
  <title id="title">Archer and target</title>
  <g fill="#2f5d91">
    <circle cx="37" cy="18" r="9"/>
    <path d="M29 29c9-5 20-2 25 7l8 17-8 4-9-15-8 17-10-3 2-29Zm-2 29 11 2-8 26-12-2 9-26Zm27-3 9-5 9 23-10 4-8-22Zm-27 28 13 2 4 26H31l-4-28Zm25-3 11-4 14 22-10 7-15-25Z"/>
    <path d="M59 41 121 30l1 3L60 47l-1-6Zm57-13 15-18 3 3-14 18-4-3Zm1 1 20 8-1 4-20-8 1-4Z"/>
    <path d="M57 20c18 7 27 24 25 45l-4-1c1-19-7-33-23-39l2-5Z"/>
    <path d="M80 91h4l7 23H69l11-23Zm-10 23h21l-5 9H66l4-9Z" opacity=".55"/>
    <circle cx="132" cy="88" r="25" fill="none" stroke="#2f5d91" stroke-width="6"/>
    <circle cx="132" cy="88" r="14" fill="none" stroke="#2f5d91" stroke-width="5"/>
    <circle cx="132" cy="88" r="5"/>
  </g>
</svg>
