<svg xmlns="http://www.w3.org/2000/svg" viewBox="0 0 160 128" role="img" aria-labelledby="title">
  <title id="title">Bonsai tree</title>
  <g fill="#507838">
    <path d="M82 105c-8-14-9-29-7-43 2-14-4-27-16-35l4-5c15 10 23 26 20 44-2 16 0 28 8 39H82Z"/>
    <path d="M75 60c-13-3-25-13-32-25l5-3c8 11 18 18 29 20l-2 8ZM79 47c9-13 21-20 36-22l1 6c-13 3-23 9-32 21l-5-5ZM75 76c-14 3-27 11-36 23l-5-4c9-14 25-24 40-27l1 8ZM81 80c12 2 24 9 33 20l-5 4c-9-10-19-15-30-17l2-7Z"/>
    <path d="M14 36c7-14 23-17 35-8 6-12 22-14 31-3 8-8 24-7 30 6 13-5 28 2 31 15 2 12-8 21-21 19-4 11-20 15-30 7-11 9-27 5-32-7-12 6-27 1-30-12-9 1-17-5-18-14-2-8 2-14 4-18Zm22 47c8-8 20-6 25 2 4-8 16-10 23-3 8-8 21-6 25 5 9-3 20 3 21 12 1 9-7 15-16 14H32c-11 0-18-11-13-20 3-6 10-10 17-10Z"/>
    <path d="M28 112h93l-10 10H38l-10-10Zm13-13h66l8 13H33l8-13Z" opacity=".88"/>
  </g>
</svg>
