<svg xmlns="http://www.w3.org/2000/svg" viewBox="0 0 128 128" role="img" aria-labelledby="title">
  <title id="title">Enso brush circle</title>
  <path fill="#d25725" d="M64 10C34 10 12 34 12 64c0 22 12 40 31 49 4 2 8 0 8-4 0-3-2-5-5-7-13-8-21-22-21-38 0-24 18-43 40-43 23 0 41 18 41 41 0 11-4 22-11 30-2 3-1 7 2 8 3 1 6 0 8-3 9-11 14-25 14-39 0-30-24-54-55-54Z"/>
  <path fill="#d25725" d="M28 83c3 12 11 23 23 29 3 2 7 0 7-3 1-3-1-6-4-8-8-5-14-12-17-21l-9 3Z" opacity=".68"/>
  <path fill="#d25725" d="M17 53c-2 10-1 19 2 28 1 3 4 4 7 3 3-1 4-4 3-7-3-7-3-14-1-22l-11-2Z" opacity=".45"/>
</svg>
